<?xml version="1.0" standalone="no"?><!-- Generator: Gravit.io --><svg xmlns="http://www.w3.org/2000/svg" xmlns:xlink="http://www.w3.org/1999/xlink" style="isolation:isolate" viewBox="0 0 260 112" width="260" height="112"><defs><clipPath id="_clipPath_nNT1xS7jCJwNUY2KKhzXwiy6TEWrYSzB"><rect width="260" height="112"/></clipPath></defs><g clip-path="url(#_clipPath_nNT1xS7jCJwNUY2KKhzXwiy6TEWrYSzB)"><g id="yellow"><path d=" M 88.75 63.75 C 88.75 40.984 107.234 22.5 130 22.5 C 152.766 22.5 171.25 40.984 171.25 63.75 C 171.25 86.516 152.766 105 130 105 C 107.234 105 88.75 86.516 88.75 63.75 Z " fill="rgb(255,211,100)" vector-effect="non-scaling-stroke" stroke-width="10" stroke="rgb(255,211,100)" stroke-opacity="0.25" stroke-linejoin="miter" stroke-linecap="square" stroke-miterlimit="3"/><path d=" M 175 34.5 C 175 31.189 177.689 28.5 181 28.5 C 184.311 28.5 187 31.189 187 34.5 C 187 37.811 184.311 40.5 181 40.5 C 177.689 40.5 175 37.811 175 34.5 Z " fill="rgb(255,211,100)"/><path d=" M 203 66.5 C 203 65.396 203.896 64.5 205 64.5 C 206.104 64.5 207 65.396 207 66.5 C 207 67.604 206.104 68.5 205 68.5 C 203.896 68.5 203 67.604 203 66.5 Z " fill="rgb(255,211,100)"/><path d=" M 59 52 C 59 49.792 60.792 48 63 48 C 65.208 48 67 49.792 67 52 C 67 54.208 65.208 56 63 56 C 60.792 56 59 54.208 59 52 Z " fill="rgb(255,211,100)"/><path d=" M 72 27.5 C 72 13.15 83.65 1.5 98 1.5 C 112.35 1.5 124 13.15 124 27.5 C 124 41.85 112.35 53.5 98 53.5 C 83.65 53.5 72 41.85 72 27.5 Z " fill="none" vector-effect="non-scaling-stroke" stroke-width="2" stroke="rgb(255,211,100)" stroke-opacity="0.25" stroke-linejoin="miter" stroke-linecap="square" stroke-miterlimit="3"/><path d=" M 176 83 C 176 76.101 181.601 70.5 188.5 70.5 C 195.399 70.5 201 76.101 201 83 C 201 89.899 195.399 95.5 188.5 95.5 C 181.601 95.5 176 89.899 176 83 Z " fill="none" vector-effect="non-scaling-stroke" stroke-width="2" stroke="rgb(255,211,100)" stroke-opacity="0.25" stroke-linejoin="miter" stroke-linecap="square" stroke-miterlimit="3"/><path d=" M 34 70.25 C 34 66.111 37.361 62.75 41.5 62.75 C 45.639 62.75 49 66.111 49 70.25 C 49 74.389 45.639 77.75 41.5 77.75 C 37.361 77.75 34 74.389 34 70.25 Z " fill="none" vector-effect="non-scaling-stroke" stroke-width="2" stroke="rgb(255,211,100)" stroke-opacity="0.25" stroke-linejoin="miter" stroke-linecap="square" stroke-miterlimit="3"/><g id="crow"><defs><linearGradient id="_lgradient_2" x1="0.002340353629547114" y1="0.5288656623715251" x2="0.7331996862315969" y2="-2.7906855103538817"><stop offset="0.8695652173913043%" style="stop-color:#FFFFFF"/><stop offset="99.1304347826087%" style="stop-color:#FFF4DD"/></linearGradient></defs><path d="M 118.275 75.5 L 141.725 75.5 C 142.429 75.5 143 76.071 143 76.775 L 143 77.225 C 143 77.929 142.429 78.5 141.725 78.5 L 118.275 78.5 C 117.571 78.5 117 77.929 117 77.225 L 117 76.775 C 117 76.071 117.571 75.5 118.275 75.5 Z" style="stroke:none;fill:url(#_lgradient_2);stroke-miterlimit:10;"/><linearGradient id="_lgradient_3" x1="0%" y1="50%" x2="100%" y2="50%"><stop offset="0.8695652173913043%" stop-opacity="1" style="stop-color:rgb(255,255,255)"/><stop offset="99.1304347826087%" stop-opacity="1" style="stop-color:rgb(255,244,221)"/></linearGradient><path d=" M 139 57.5 L 137 57.5 C 135.896 57.5 134.619 56.689 134.151 55.689 L 131.158 49.311 C 130.689 48.311 129.888 48.292 129.371 49.267 L 125.938 55.733 C 125.42 56.708 124.104 57.5 123 57.5 L 122 57.5 C 121.448 57.5 120.675 57.192 120.274 56.812 L 116.501 53.234 C 115.7 52.474 115.164 52.747 115.304 53.841 L 117.566 71.516 C 117.706 72.611 118.716 73.5 119.82 73.5 L 141.24 73.5 C 141.792 73.5 142.297 73.056 142.366 72.508 L 144.747 53.842 C 144.887 52.747 144.406 52.528 143.674 53.354 L 140.663 56.752 C 140.297 57.165 139.552 57.5 139 57.5 Z  M 127 64.5 C 127 62.837 128.337 61.5 130 61.5 C 131.663 61.5 133 62.837 133 64.5 C 133 66.163 131.663 67.5 130 67.5 C 128.337 67.5 127 66.126 127 64.5 Z " fill-rule="evenodd" fill="url(#_lgradient_3)"/></g></g></g></svg>