<?xml version="1.0" standalone="no"?><!-- Generator: Gravit.io --><svg xmlns="http://www.w3.org/2000/svg" xmlns:xlink="http://www.w3.org/1999/xlink" style="isolation:isolate" viewBox="0 0 64 64" width="64" height="64"><defs><clipPath id="_clipPath_mgvugUUqqnPJ1nL4E8fzID5PcFVRiA7X"><rect width="64" height="64"/></clipPath></defs><g clip-path="url(#_clipPath_mgvugUUqqnPJ1nL4E8fzID5PcFVRiA7X)"><g id="gray"><path d=" M 31.75 61.25 C 15.469 61.25 2.25 48.031 2.25 31.75 C 2.25 15.469 15.469 2.25 31.75 2.25 C 48.031 2.25 61.25 15.469 61.25 31.75 C 61.25 48.031 48.031 61.25 31.75 61.25 Z " fill="rgb(235,235,235)"/><path d=" M 31.75 61.25 C 15.469 61.25 2.25 48.031 2.25 31.75 C 2.25 15.469 15.469 2.25 31.75 2.25 C 48.031 2.25 61.25 15.469 61.25 31.75" fill="rgb(235,235,235)" vector-effect="non-scaling-stroke" stroke-width="4" stroke="rgb(188,188,188)" stroke-opacity="0.996078431372549" stroke-linejoin="miter" stroke-linecap="round" stroke-miterlimit="3"/><path d=" M 34.717 36.996 C 34.717 36.184 34.496 35.538 34.059 35.056 C 33.618 34.577 32.87 34.133 31.817 33.727 C 30.764 33.321 29.854 32.917 29.09 32.516 C 28.376 32.15 27.714 31.684 27.124 31.133 C 26.577 30.614 26.151 30.001 25.848 29.298 C 25.544 28.594 25.39 27.757 25.39 26.787 C 25.39 25.113 25.912 23.739 26.957 22.669 C 28.002 21.599 29.39 20.975 31.12 20.797 L 31.12 17.616 L 33.441 17.616 L 33.441 20.841 C 35.153 21.088 36.494 21.82 37.461 23.034 C 38.428 24.248 38.91 25.819 38.91 27.751 L 34.717 27.751 C 34.717 26.562 34.476 25.672 33.999 25.084 C 33.519 24.494 32.878 24.199 32.076 24.199 C 31.284 24.199 30.668 24.431 30.234 24.889 C 29.798 25.351 29.58 25.987 29.58 26.8 C 29.58 27.553 29.793 28.158 30.219 28.613 C 30.645 29.068 31.436 29.535 32.591 30.01 C 33.747 30.485 34.697 30.935 35.442 31.356 C 36.187 31.777 36.815 32.252 37.329 32.783 C 37.842 33.314 38.233 33.918 38.504 34.596 C 38.775 35.274 38.91 36.064 38.91 36.967 C 38.91 38.651 38.397 40.019 37.372 41.069 C 36.347 42.12 34.934 42.738 33.136 42.928 L 33.136 45.884 L 30.83 45.884 L 30.83 42.941 C 28.847 42.723 27.312 42.003 26.222 40.78 C 25.133 39.558 24.59 37.927 24.59 35.896 L 28.783 35.896 C 28.783 37.075 29.057 37.98 29.603 38.609 C 30.15 39.238 30.935 39.553 31.96 39.553 C 32.812 39.553 33.484 39.323 33.978 38.861 C 34.471 38.401 34.717 37.779 34.717 36.996 Z " fill="rgb(188,188,188)"/><path d=" M 49.56 36.774 C 42.808 36.774 37.369 42.346 37.369 49.262 C 37.369 52.163 38.354 54.846 39.948 56.947 L 37.369 56.947 L 37.369 58.868 L 42.995 58.868 L 42.995 53.105 L 41.12 53.105 L 41.12 55.296 C 39.892 53.536 39.236 51.425 39.245 49.262 C 39.245 43.401 43.838 38.696 49.56 38.696 C 51.247 38.696 52.842 39.067 54.248 39.837 L 54.248 37.735 C 52.842 37.157 51.247 36.774 49.56 36.774 Z  M 56.124 39.656 L 56.124 45.42 L 57.999 45.42 L 57.999 43.229 C 59.197 44.951 59.875 47.011 59.875 49.262 C 59.875 55.124 55.282 59.829 49.56 59.829 C 47.872 59.829 46.277 59.457 44.871 58.688 L 44.871 60.789 C 46.277 61.368 47.872 61.75 49.56 61.75 C 56.311 61.75 61.75 56.179 61.75 49.262 C 61.75 46.361 60.765 43.678 59.171 41.577 L 61.75 41.577 L 61.75 39.656 L 56.124 39.656 Z " fill-rule="evenodd" fill="rgb(188,188,188)" vector-effect="non-scaling-stroke" stroke-width="1" stroke="rgb(188,188,188)" stroke-linejoin="miter" stroke-linecap="butt" stroke-miterlimit="4"/></g></g></svg>