<?xml version="1.0" standalone="no"?><!-- Generator: Gravit.io --><svg xmlns="http://www.w3.org/2000/svg" xmlns:xlink="http://www.w3.org/1999/xlink" style="isolation:isolate" viewBox="0 0 64 64" width="64" height="64"><defs><clipPath id="_clipPath_YW36usVxH1is8eHoY6Ls3QTLRc3bTpcG"><rect width="64" height="64"/></clipPath></defs><g clip-path="url(#_clipPath_YW36usVxH1is8eHoY6Ls3QTLRc3bTpcG)"><path d=" M 32 2 C 15.385 2 2 15.385 2 32 C 2 38.969 4.423 45.415 8.346 50.462 L 2 50.462 L 2 55.077 L 15.846 55.077 L 15.846 41.231 L 11.231 41.231 L 11.231 46.495 C 8.208 42.268 6.593 37.196 6.615 32 C 6.615 17.918 17.918 6.615 32 6.615 C 36.154 6.615 40.077 7.508 43.538 9.357 L 43.538 4.308 C 40.077 2.918 36.154 2 32 2 Z  M 48.154 8.923 L 48.154 22.769 L 52.769 22.769 L 52.769 17.505 C 55.716 21.643 57.385 26.591 57.385 32 C 57.385 46.082 46.082 57.385 32 57.385 C 27.846 57.385 23.923 56.492 20.462 54.643 L 20.462 59.692 C 23.923 61.082 27.846 62 32 62 C 48.615 62 62 48.615 62 32 C 62 25.031 59.577 18.585 55.654 13.538 L 62 13.538 L 62 8.923 L 48.154 8.923 Z " fill-rule="evenodd" fill="rgb(255,255,255)" vector-effect="non-scaling-stroke" stroke-width="1" stroke="rgb(255,255,255)" stroke-linejoin="miter" stroke-linecap="butt" stroke-miterlimit="4"/></g></svg>