<?xml version="1.0" standalone="no"?><!-- Generator: Gravit.io --><svg xmlns="http://www.w3.org/2000/svg" xmlns:xlink="http://www.w3.org/1999/xlink" style="isolation:isolate" viewBox="0 0 64 64" width="64" height="64"><defs><clipPath id="_clipPath_hpDp9DcII9XRhV0EE0ZV4AgYYF5XHzuf"><rect width="64" height="64"/></clipPath></defs><g clip-path="url(#_clipPath_hpDp9DcII9XRhV0EE0ZV4AgYYF5XHzuf)"><g id="Group"><path d=" M 31.676 61.437 C 15.395 61.437 2.176 48.218 2.176 31.937 C 2.176 15.655 15.395 2.437 31.676 2.437 C 47.958 2.437 61.176 15.655 61.176 31.937 C 61.176 48.218 47.958 61.437 31.676 61.437 Z " fill="rgb(235,235,235)"/><path d=" M 31.676 61.437 C 15.395 61.437 2.176 48.218 2.176 31.937 C 2.176 15.655 15.395 2.437 31.676 2.437 C 47.958 2.437 61.176 15.655 61.176 31.937" fill="rgb(235,235,235)" vector-effect="non-scaling-stroke" stroke-width="4" stroke="rgb(69,76,85)" stroke-opacity="0.996078431372549" stroke-linejoin="miter" stroke-linecap="round" stroke-miterlimit="3"/><path d=" M 34.643 37.182 C 34.643 36.371 34.422 35.725 33.985 35.243 C 33.544 34.764 32.796 34.319 31.743 33.913 C 30.69 33.508 29.78 33.103 29.016 32.703 C 28.302 32.336 27.64 31.871 27.05 31.319 C 26.503 30.8 26.078 30.188 25.774 29.485 C 25.47 28.781 25.317 27.944 25.317 26.973 C 25.317 25.299 25.838 23.926 26.883 22.856 C 27.928 21.785 29.316 21.161 31.046 20.984 L 31.046 17.803 L 33.367 17.803 L 33.367 21.028 C 35.079 21.274 36.42 22.007 37.387 23.221 C 38.354 24.435 38.837 26.006 38.837 27.937 L 34.643 27.937 C 34.643 26.748 34.402 25.859 33.925 25.27 C 33.445 24.68 32.805 24.386 32.002 24.386 C 31.21 24.386 30.594 24.618 30.16 25.076 C 29.724 25.538 29.506 26.173 29.506 26.987 C 29.506 27.739 29.719 28.345 30.145 28.8 C 30.571 29.255 31.362 29.721 32.517 30.196 C 33.673 30.672 34.624 31.121 35.368 31.543 C 36.113 31.964 36.742 32.439 37.255 32.97 C 37.768 33.501 38.16 34.105 38.43 34.783 C 38.701 35.461 38.837 36.25 38.837 37.153 C 38.837 38.838 38.323 40.206 37.298 41.256 C 36.273 42.306 34.86 42.925 33.062 43.114 L 33.062 46.07 L 30.756 46.07 L 30.756 43.128 C 28.773 42.91 27.238 42.189 26.149 40.967 C 25.059 39.744 24.516 38.114 24.516 36.083 L 28.709 36.083 C 28.709 37.262 28.983 38.166 29.529 38.796 C 30.076 39.425 30.862 39.739 31.887 39.739 C 32.738 39.739 33.41 39.509 33.904 39.047 C 34.398 38.588 34.643 37.965 34.643 37.182 Z " fill="rgb(69,76,85)"/><path d=" M 49.486 36.961 C 42.734 36.961 37.295 42.532 37.295 49.449 C 37.295 52.35 38.28 55.033 39.874 57.134 L 37.295 57.134 L 37.295 59.055 L 42.922 59.055 L 42.922 53.291 L 41.046 53.291 L 41.046 55.482 C 39.818 53.723 39.162 51.612 39.171 49.449 C 39.171 43.587 43.764 38.882 49.486 38.882 C 51.174 38.882 52.768 39.254 54.174 40.023 L 54.174 37.922 C 52.768 37.343 51.174 36.961 49.486 36.961 Z  M 56.05 39.843 L 56.05 45.606 L 57.925 45.606 L 57.925 43.415 C 59.123 45.138 59.801 47.197 59.801 49.449 C 59.801 55.31 55.208 60.015 49.486 60.015 C 47.798 60.015 46.204 59.644 44.797 58.874 L 44.797 60.976 C 46.204 61.554 47.798 61.937 49.486 61.937 C 56.237 61.937 61.676 56.365 61.676 49.449 C 61.676 46.548 60.692 43.865 59.097 41.764 L 61.676 41.764 L 61.676 39.843 L 56.05 39.843 Z " fill-rule="evenodd" fill="rgb(34,152,224)" vector-effect="non-scaling-stroke" stroke-width="1" stroke="rgb(34,152,224)" stroke-linejoin="miter" stroke-linecap="butt" stroke-miterlimit="4"/></g></g></svg>