<?xml version="1.0" standalone="no"?><!-- Generator: Gravit.io --><svg xmlns="http://www.w3.org/2000/svg" xmlns:xlink="http://www.w3.org/1999/xlink" style="isolation:isolate" viewBox="0 0 260 112" width="260" height="112"><defs><clipPath id="_clipPath_c7EmcrmZ90ydWpgo15EwdRYaxCGiIVfP"><rect width="260" height="112"/></clipPath></defs><g clip-path="url(#_clipPath_c7EmcrmZ90ydWpgo15EwdRYaxCGiIVfP)"><g id="aquamarine"><path d=" M 88.75 63.75 C 88.75 40.984 107.234 22.5 130 22.5 C 152.766 22.5 171.25 40.984 171.25 63.75 C 171.25 86.516 152.766 105 130 105 C 107.234 105 88.75 86.516 88.75 63.75 Z " fill="rgb(85,216,252)" vector-effect="non-scaling-stroke" stroke-width="10" stroke="rgb(65,213,254)" stroke-opacity="0.25" stroke-linejoin="miter" stroke-linecap="square" stroke-miterlimit="3"/><path d=" M 180 25 C 180 23.068 181.568 21.5 183.5 21.5 C 185.432 21.5 187 23.068 187 25 C 187 26.932 185.432 28.5 183.5 28.5 C 181.568 28.5 180 26.932 180 25 Z " fill="rgb(85,216,252)"/><path d=" M 63.5 97.5 C 63.5 96.396 64.396 95.5 65.5 95.5 C 66.604 95.5 67.5 96.396 67.5 97.5 C 67.5 98.604 66.604 99.5 65.5 99.5 C 64.396 99.5 63.5 98.604 63.5 97.5 Z " fill="rgb(85,216,252)"/><path d=" M 48 25.5 C 48 23.292 49.792 21.5 52 21.5 C 54.208 21.5 56 23.292 56 25.5 C 56 27.708 54.208 29.5 52 29.5 C 49.792 29.5 48 27.708 48 25.5 Z " fill="rgb(85,216,252)"/><path d=" M 67 27.5 C 67 13.15 78.65 1.5 93 1.5 C 107.35 1.5 119 13.15 119 27.5 C 119 41.85 107.35 53.5 93 53.5 C 78.65 53.5 67 41.85 67 27.5 Z " fill="none" vector-effect="non-scaling-stroke" stroke-width="2" stroke="rgb(85,216,252)" stroke-opacity="0.25" stroke-linejoin="miter" stroke-linecap="square" stroke-miterlimit="3"/><path d=" M 176 83 C 176 76.101 181.601 70.5 188.5 70.5 C 195.399 70.5 201 76.101 201 83 C 201 89.899 195.399 95.5 188.5 95.5 C 181.601 95.5 176 89.899 176 83 Z " fill="none" vector-effect="non-scaling-stroke" stroke-width="2" stroke="rgb(85,216,252)" stroke-opacity="0.25" stroke-linejoin="miter" stroke-linecap="square" stroke-miterlimit="3"/><path d=" M 34 70.25 C 34 66.111 37.361 62.75 41.5 62.75 C 45.639 62.75 49 66.111 49 70.25 C 49 74.389 45.639 77.75 41.5 77.75 C 37.361 77.75 34 74.389 34 70.25 Z " fill="none" vector-effect="non-scaling-stroke" stroke-width="2" stroke="rgb(85,216,252)" stroke-opacity="0.25" stroke-linejoin="miter" stroke-linecap="square" stroke-miterlimit="3"/><linearGradient id="_lgradient_4" x1="49.94197748067876%" y1="50%" x2="52.611013369455904%" y2="50%"><stop offset="2.1739130434782608%" stop-opacity="1" style="stop-color:rgb(246,253,255)"/><stop offset="98.26086956521739%" stop-opacity="1" style="stop-color:rgb(209,244,255)"/></linearGradient><path d=" M 136.102 52.5 L 124 52.5 L 124 52.5 L 124 51.085 C 124 50.762 123.738 50.5 123.415 50.5 L 120.585 50.5 C 120.262 50.5 120 50.762 120 51.085 L 120 52.5 L 116.025 52.5 C 114.907 52.5 114 53.407 114 54.525 L 114 77.475 C 114 78.593 114.907 79.5 116.025 79.5 L 143.975 79.5 C 145.093 79.5 146 78.593 146 77.475 L 146 54.525 C 146 53.407 145.093 52.5 143.975 52.5 L 140.102 52.5 L 140.102 51.085 C 140.102 50.762 139.84 50.5 139.517 50.5 L 136.687 50.5 C 136.364 50.5 136.102 50.762 136.102 51.085 L 136.102 52.5 Z  M 123 59.5 C 123 60.604 123.896 61.5 125 61.5 C 126.104 61.5 127 60.604 127 59.5 C 127 58.396 126.104 57.5 125 57.5 C 123.896 57.5 123 58.396 123 59.5 L 123 59.5 Z  M 116.025 52.5 L 116.025 52.5 Z  M 137.9 70.763 L 137.9 70.763 L 130.932 64.5 L 125.43 69.508 L 120.021 64.5 L 118 66.34 L 125.43 73.018 L 130.932 68.009 L 135.886 72.597 L 133.683 74.602 L 140.102 74.602 L 140.102 68.759 L 137.9 70.763 Z " fill-rule="evenodd" fill="url(#_lgradient_4)"/></g></g></svg>