<?xml version="1.0" standalone="no"?><!-- Generator: Gravit.io --><svg xmlns="http://www.w3.org/2000/svg" xmlns:xlink="http://www.w3.org/1999/xlink" style="isolation:isolate" viewBox="0 0 260 112" width="260" height="112"><defs><clipPath id="_clipPath_mK6RhcPu11dIs0leemdK6cOWpoqm0ujf"><rect width="260" height="112"/></clipPath></defs><g clip-path="url(#_clipPath_mK6RhcPu11dIs0leemdK6cOWpoqm0ujf)"><g id="blue"><g id="Group"><path d=" M 87.75 63.75 C 87.75 40.984 106.234 22.5 129 22.5 C 151.766 22.5 170.25 40.984 170.25 63.75 C 170.25 86.516 151.766 105 129 105 C 106.234 105 87.75 86.516 87.75 63.75 Z " fill="rgb(24,144,255)" vector-effect="non-scaling-stroke" stroke-width="10" stroke="rgb(24,144,255)" stroke-opacity="0.25" stroke-linejoin="miter" stroke-linecap="square" stroke-miterlimit="3"/><path d=" M 174 33.5 C 174 30.189 176.689 27.5 180 27.5 C 183.311 27.5 186 30.189 186 33.5 C 186 36.811 183.311 39.5 180 39.5 C 176.689 39.5 174 36.811 174 33.5 Z " fill="rgb(24,144,255)"/><path d=" M 62.5 97.5 C 62.5 96.396 63.396 95.5 64.5 95.5 C 65.604 95.5 66.5 96.396 66.5 97.5 C 66.5 98.604 65.604 99.5 64.5 99.5 C 63.396 99.5 62.5 98.604 62.5 97.5 Z " fill="rgb(24,144,255)"/><path d=" M 53 43.5 C 53 41.292 54.792 39.5 57 39.5 C 59.208 39.5 61 41.292 61 43.5 C 61 45.708 59.208 47.5 57 47.5 C 54.792 47.5 53 45.708 53 43.5 Z " fill="rgb(24,144,255)"/><path d=" M 66 27.5 C 66 13.15 77.65 1.5 92 1.5 C 106.35 1.5 118 13.15 118 27.5 C 118 41.85 106.35 53.5 92 53.5 C 77.65 53.5 66 41.85 66 27.5 Z " fill="none" vector-effect="non-scaling-stroke" stroke-width="2" stroke="rgb(24,144,255)" stroke-opacity="0.25" stroke-linejoin="miter" stroke-linecap="square" stroke-miterlimit="3"/><path d=" M 176 89 C 176 79.341 183.841 71.5 193.5 71.5 C 203.159 71.5 211 79.341 211 89 C 211 98.659 203.159 106.5 193.5 106.5 C 183.841 106.5 176 98.659 176 89 Z " fill="none" vector-effect="non-scaling-stroke" stroke-width="2" stroke="rgb(24,144,255)" stroke-opacity="0.25" stroke-linejoin="miter" stroke-linecap="square" stroke-miterlimit="3"/><path d=" M 33 70.25 C 33 66.111 36.361 62.75 40.5 62.75 C 44.639 62.75 48 66.111 48 70.25 C 48 74.389 44.639 77.75 40.5 77.75 C 36.361 77.75 33 74.389 33 70.25 Z " fill="none" vector-effect="non-scaling-stroke" stroke-width="2" stroke="rgb(24,144,255)" stroke-opacity="0.25" stroke-linejoin="miter" stroke-linecap="square" stroke-miterlimit="3"/></g><g id="secure"><linearGradient id="_lgradient_5" x1="45.899089840628385%" y1="50%" x2="54.84331630891295%" y2="50%"><stop offset="2.1739130434782608%" stop-opacity="1" style="stop-color:rgb(224,240,255)"/><stop offset="98.26086956521739%" stop-opacity="1" style="stop-color:rgb(251,253,255)"/></linearGradient><path d=" M 144.989 53.1 C 144.989 53.1 145.927 74.95 130.161 83.5 C 114.073 74.95 115.01 53.1 115.01 53.1 C 122.507 53.1 130 45.5 130 45.5 C 130 45.5 136.559 53.1 144.989 53.1 Z " fill="url(#_lgradient_5)"/><path d=" M 135.46 58.8 L 128.063 66.307 L 124.536 62.738 L 122.499 64.804 L 128.067 70.434 L 137.5 60.863 L 135.46 58.8 Z " fill="rgb(24,144,255)"/></g></g></g></svg>