<?xml version="1.0" standalone="no"?><!-- Generator: Gravit.io --><svg xmlns="http://www.w3.org/2000/svg" xmlns:xlink="http://www.w3.org/1999/xlink" style="isolation:isolate" viewBox="0 0 64 64" width="64" height="64"><defs><clipPath id="_clipPath_I9ny0Vg38OpPwY4J5UkbZTU6496qElLu"><rect width="64" height="64"/></clipPath></defs><g clip-path="url(#_clipPath_I9ny0Vg38OpPwY4J5UkbZTU6496qElLu)"><g id="zelle"><path d=" M 7.684 18.995 C 7.657 19.034 7.637 19.586 7.634 20.803 L 7.622 22.556 L 4.977 22.575 C 3.521 22.587 2.327 22.598 2.32 22.606 C 2.316 22.61 2.277 22.672 2.235 22.738 C 2.161 22.857 2.158 22.938 2.158 24.344 C 2.158 25.908 2.165 25.989 2.339 26.074 C 2.378 26.093 4.421 26.117 6.88 26.128 L 11.349 26.147 L 6.595 32.21 C 3.98 35.543 1.814 38.331 1.783 38.401 C 1.74 38.509 1.733 38.772 1.74 39.861 L 1.752 41.189 L 1.86 41.293 L 1.964 41.401 L 4.795 41.421 L 7.622 41.44 L 7.634 43.193 C 7.637 44.41 7.657 44.962 7.684 45.001 C 7.746 45.07 11.078 45.074 11.148 45.005 C 11.182 44.97 11.194 44.514 11.194 43.189 L 11.194 41.421 L 14.075 41.421 L 16.956 41.421 L 17.068 41.309 C 17.153 41.22 17.18 41.158 17.18 41.038 C 17.18 40.899 17.149 40.845 16.867 40.529 C 16.261 39.841 15.859 39.243 15.481 38.459 C 15.353 38.2 15.21 37.961 15.164 37.93 C 15.087 37.876 14.643 37.868 11.109 37.868 C 8.923 37.868 7.139 37.856 7.139 37.837 C 7.139 37.822 8.939 35.508 11.14 32.693 C 13.341 29.878 15.504 27.109 15.948 26.541 L 16.755 25.506 L 16.755 24.155 L 16.755 22.799 L 16.643 22.687 L 16.531 22.575 L 13.863 22.575 L 11.194 22.575 L 11.194 20.834 C 11.194 19.71 11.179 19.069 11.155 19.019 C 11.117 18.949 11.055 18.945 9.422 18.945 C 8.054 18.945 7.718 18.957 7.684 18.995 Z " fill="rgb(109,30,212)"/><path d=" M 33.299 20.799 C 33.253 20.814 33.179 20.88 33.133 20.938 L 33.052 21.042 L 33.052 29.581 C 33.052 35.142 33.067 38.239 33.09 38.467 C 33.156 39.023 33.272 39.44 33.48 39.876 C 33.654 40.235 33.72 40.32 34.033 40.629 C 34.558 41.147 35.199 41.475 36.064 41.664 C 36.581 41.78 37.879 41.776 38.539 41.66 C 39.065 41.564 39.4 41.448 39.482 41.332 C 39.613 41.147 39.597 41.035 39.373 40.567 C 39.072 39.938 38.883 39.308 38.783 38.586 C 38.767 38.463 38.721 38.358 38.647 38.277 L 38.543 38.158 L 37.925 38.158 C 37.249 38.158 37.199 38.142 37.018 37.899 C 36.832 37.652 36.836 37.883 36.836 29.225 C 36.836 21.93 36.829 21.092 36.774 20.988 C 36.662 20.768 36.605 20.76 34.917 20.764 C 34.071 20.764 33.341 20.78 33.299 20.799 Z " fill="rgb(109,30,212)"/><path d=" M 41.015 20.818 C 40.752 20.93 40.771 20.247 40.787 29.75 C 40.795 36.455 40.81 38.412 40.849 38.633 C 41.03 39.698 41.401 40.397 42.042 40.884 C 42.185 40.992 42.494 41.174 42.725 41.289 C 43.482 41.656 44.228 41.799 45.22 41.757 C 46.247 41.71 46.811 41.595 47.352 41.317 C 47.711 41.131 47.804 41.027 47.804 40.803 C 47.804 40.621 47.73 40.482 47.302 39.876 C 47.043 39.505 46.815 39.127 46.641 38.768 C 46.495 38.467 46.34 38.2 46.301 38.177 C 46.255 38.154 46.027 38.146 45.691 38.161 C 45.178 38.185 45.151 38.181 44.985 38.092 C 44.764 37.972 44.649 37.756 44.598 37.366 C 44.575 37.188 44.56 34.002 44.56 29.075 C 44.56 23.174 44.548 21.046 44.517 20.977 C 44.421 20.768 44.355 20.76 42.679 20.76 C 41.436 20.764 41.119 20.776 41.015 20.818 Z " fill="rgb(109,30,212)"/><path d=" M 23.166 26.09 C 20.756 26.317 18.918 27.387 17.67 29.275 C 17.076 30.179 16.655 31.326 16.458 32.597 C 16.361 33.207 16.361 34.779 16.462 35.396 C 16.867 37.968 18.238 39.911 20.362 40.938 C 22.54 41.988 25.556 42.035 27.862 41.05 C 28.781 40.66 29.476 40.204 30.341 39.42 C 30.739 39.057 30.823 38.934 30.804 38.725 C 30.793 38.598 30.758 38.559 30.441 38.312 C 29.92 37.91 29.514 37.532 29.171 37.13 C 28.657 36.532 28.638 36.516 28.46 36.516 C 28.313 36.516 28.271 36.543 27.962 36.829 C 26.904 37.814 25.749 38.216 24.112 38.165 C 22.791 38.123 21.961 37.806 21.281 37.076 C 20.868 36.636 20.509 35.86 20.439 35.261 L 20.412 35.049 L 25.683 35.049 C 30.912 35.049 30.959 35.049 31.055 34.972 C 31.229 34.833 31.252 34.682 31.256 33.697 C 31.256 32.74 31.225 32.427 31.055 31.658 C 30.391 28.627 28.232 26.603 25.17 26.151 C 24.66 26.074 23.648 26.043 23.166 26.09 Z  M 24.672 29.337 C 25.992 29.55 26.969 30.434 27.313 31.728 L 27.41 32.075 L 23.938 32.075 L 20.47 32.075 L 20.547 31.774 C 20.868 30.515 21.837 29.615 23.15 29.357 C 23.475 29.291 24.328 29.279 24.672 29.337 Z " fill="rgb(109,30,212)"/><path d=" M 54.349 26.074 C 53.202 26.167 52.307 26.402 51.376 26.862 C 49.997 27.545 48.947 28.611 48.248 30.048 C 47.68 31.21 47.425 32.284 47.39 33.701 C 47.367 34.555 47.406 35.091 47.537 35.775 C 48.109 38.733 50.051 40.787 52.948 41.498 C 53.677 41.676 54.284 41.741 55.218 41.745 C 56.095 41.745 56.489 41.71 57.253 41.556 C 58.404 41.324 59.628 40.78 60.548 40.088 C 60.961 39.78 61.625 39.185 61.729 39.026 C 61.822 38.895 61.845 38.745 61.799 38.621 C 61.783 38.586 61.633 38.451 61.459 38.32 C 60.961 37.941 60.517 37.524 60.146 37.092 C 59.698 36.567 59.636 36.516 59.455 36.516 C 59.327 36.516 59.273 36.551 58.987 36.818 C 57.968 37.764 56.852 38.177 55.33 38.177 C 55.025 38.177 54.604 38.15 54.4 38.119 C 52.82 37.883 51.781 36.922 51.48 35.435 L 51.407 35.068 L 56.705 35.049 C 61.853 35.03 62.011 35.026 62.088 34.956 C 62.231 34.825 62.262 34.616 62.262 33.678 C 62.262 32.716 62.216 32.261 62.03 31.5 C 61.567 29.608 60.497 28.082 58.964 27.128 C 58.18 26.642 57.207 26.298 56.18 26.151 C 55.771 26.09 54.709 26.047 54.349 26.074 Z  M 56.079 29.426 C 57.014 29.704 57.655 30.229 58.061 31.052 C 58.223 31.38 58.385 31.859 58.385 32.006 C 58.385 32.071 58.196 32.075 54.933 32.075 L 51.48 32.075 L 51.534 31.84 C 51.743 30.948 52.384 30.106 53.16 29.712 C 53.824 29.368 54.195 29.291 55.083 29.31 C 55.659 29.322 55.782 29.337 56.079 29.426 Z " fill="rgb(109,30,212)"/></g></g></svg>